<svg width="33" height="30" viewBox="0 0 33 30" fill="none" xmlns="http://www.w3.org/2000/svg">
<g clip-path="url(#clip0_49_45)">
<path fill-rule="evenodd" clip-rule="evenodd" d="M32.4 5.2804C32.1687 6.16864 31.9296 7.05484 31.7075 7.94546C30.7303 11.8668 29.758 15.7894 28.7832 19.7114C28.7631 19.7924 28.7336 19.8711 28.7032 19.9682C23.1026 19.9682 17.506 19.9682 11.8524 19.9682C12.102 20.9783 12.3435 21.9562 12.5937 22.9689C12.7236 22.9689 12.8459 22.9689 12.9684 22.9689C17.1017 22.9689 21.2349 22.9661 25.3682 22.9703C27.1231 22.9721 28.5137 24.0888 28.8807 25.773C29.2971 27.6836 28.0068 29.5952 26.0634 29.9466C24.1672 30.2895 22.2983 28.9417 22.0123 27.0442C21.9134 26.3881 22.0037 25.7629 22.232 25.118C19.6546 25.118 17.1099 25.118 14.5239 25.118C14.9713 26.4101 14.8453 27.6219 13.9861 28.7032C13.4456 29.3834 12.7313 29.7933 11.879 29.9464C10.1678 30.2538 8.4945 29.209 7.9465 27.5321C7.48289 26.113 7.99055 23.8262 10.4345 23.0433C8.70462 16.0869 6.97438 9.12944 5.24195 2.16308C3.47728 2.16308 1.73868 2.16308 8.43856e-05 2.16308C0 1.44205 0 0.721026 0 0C0.125144 0.00924719 0.250372 0.026469 0.3756 0.0265539C2.45208 0.0282506 4.52864 0.031644 6.60511 0.0222272C6.82823 0.0212091 6.91742 0.0899268 6.96426 0.304479C7.07927 0.831229 7.21682 1.35314 7.34728 1.87642C7.6185 2.9636 7.89098 4.05044 8.16692 5.15323C16.2538 5.15323 24.3269 5.15323 32.4 5.15323C32.4 5.19565 32.4 5.23798 32.4 5.2804ZM8.73871 7.28136C8.73475 7.35991 8.72572 7.39215 8.73272 7.4204C9.05322 8.72315 9.37144 10.0266 9.70636 11.3255C9.72628 11.403 9.88062 11.4936 9.9742 11.4957C10.6372 11.5104 11.3007 11.5035 11.9639 11.5036C12.2659 11.5036 12.5678 11.5036 12.8962 11.5036C12.7258 10.1176 12.563 8.77541 12.3885 7.43474C12.3809 7.37637 12.2659 7.2884 12.2005 7.28789C11.054 7.27881 9.90745 7.28136 8.73871 7.28136ZM20.2956 7.29595C20.2956 8.70754 20.2956 10.0893 20.2956 11.4833C21.3436 11.4833 22.3699 11.4833 23.4135 11.4833C23.5876 10.0822 23.7593 8.69906 23.9336 7.29595C22.7072 7.29595 21.5193 7.29595 20.2956 7.29595ZM14.5485 7.29926C14.5344 7.33752 14.519 7.35796 14.5213 7.37629C14.6811 8.69041 14.8385 10.0049 15.0134 11.3171C15.0229 11.3892 15.1762 11.493 15.2647 11.4953C15.8863 11.5108 16.5087 11.5036 17.1308 11.5036C17.4649 11.5036 17.799 11.5036 18.1474 11.5036C18.1474 10.0826 18.1474 8.69931 18.1474 7.29926C16.9353 7.29926 15.7386 7.29926 14.5485 7.29926ZM25.5422 11.5024C26.5674 11.5024 27.5341 11.5078 28.5005 11.4912C28.572 11.4899 28.6785 11.3398 28.7046 11.2416C28.8753 10.5987 29.0274 9.95082 29.1874 9.30488C29.3515 8.64239 29.5177 7.98058 29.6885 7.2962C28.4636 7.2962 27.279 7.2962 26.0656 7.2962C25.8921 8.68998 25.7202 10.0716 25.5422 11.5024ZM13.6864 17.84C13.5082 16.4087 13.3362 15.0269 13.1631 13.637C12.1957 13.637 11.2531 13.637 10.2765 13.637C10.6149 15.0039 10.9451 16.3471 11.2863 17.6874C11.3025 17.7511 11.4156 17.8324 11.4847 17.8335C12.1995 17.8442 12.9144 17.84 13.6864 17.84ZM20.2756 13.6389C20.2756 15.001 20.2731 16.335 20.2843 17.6689C20.2849 17.7267 20.4108 17.8315 20.48 17.8329C21.1335 17.8454 21.7875 17.8455 22.4411 17.8322C22.5112 17.8309 22.6315 17.7288 22.6403 17.6618C22.815 16.329 22.9766 14.9946 23.1437 13.6389C22.1893 13.6389 21.2553 13.6389 20.2756 13.6389ZM15.2935 13.6333C15.4711 15.0546 15.6437 16.4371 15.8157 17.8142C16.6197 17.8142 17.3815 17.8142 18.1397 17.8142C18.1397 16.4047 18.1397 15.0222 18.1397 13.6333C17.1923 13.6333 16.2679 13.6333 15.2935 13.6333ZM25.2774 13.63C25.1023 15.0407 24.931 16.4208 24.7549 17.8411C25.4656 17.8411 26.1377 17.8315 26.8091 17.8466C27.0276 17.8515 27.0954 17.7577 27.1413 17.5681C27.4143 16.4377 27.697 15.3095 27.9754 14.1804C28.0193 14.0024 28.0577 13.8231 28.1019 13.63C27.1457 13.63 26.2308 13.63 25.2774 13.63ZM12.6607 26.4883C12.662 25.7166 12.0448 25.0948 11.2796 25.0968C10.5152 25.0988 9.89623 25.7289 9.90425 26.497C9.9121 27.2547 10.521 27.8653 11.2726 27.8693C12.0439 27.8732 12.6594 27.2609 12.6607 26.4883ZM26.8372 26.4957C26.8411 25.722 26.2296 25.0987 25.4643 25.0965C24.6993 25.0942 24.0812 25.718 24.084 26.4895C24.0867 27.249 24.6905 27.8623 25.4426 27.8691C26.2154 27.8761 26.8334 27.2674 26.8372 26.4957Z" fill="white"/>
</g>
<defs>
<clipPath id="clip0_49_45">
<rect width="32.4" height="30" fill="white"/>
</clipPath>
</defs>
</svg>
