<svg width="30" height="30" viewBox="0 0 30 30" fill="none" xmlns="http://www.w3.org/2000/svg">
<g clip-path="url(#clip0_49_44)">
<path fill-rule="evenodd" clip-rule="evenodd" d="M2.34378 30C2.3689 26.9938 3.30317 24.3014 5.2232 21.9895C7.35458 19.4231 10.0795 17.859 13.411 17.4581C17.2614 16.9949 20.6497 18.0727 23.5239 20.6805C25.8811 22.8192 27.2158 25.4981 27.5838 28.6564C27.6356 29.101 27.6335 29.552 27.6563 30C28.4375 30 29.2188 30 30 30C30 29.707 30 29.4141 30 29.1211C29.9831 29.0372 29.9562 28.9541 29.9506 28.8694C29.8471 27.3187 29.5119 25.8176 28.9116 24.3865C27.2207 20.3551 24.3299 17.5434 20.2579 15.9485C20.1567 15.9089 20.0559 15.8681 19.9211 15.8144C20.0522 15.7155 20.1385 15.6527 20.2223 15.5868C22.3919 13.8824 23.5675 11.6569 23.6615 8.89572C23.723 7.0909 23.2403 5.41593 22.2359 3.91225C21.0485 2.13446 19.428 0.921159 17.3607 0.34538C16.7819 0.184188 16.1782 0.11271 15.5859 0C15.1953 0 14.8047 0 14.414 0C13.9441 0.079534 13.4645 0.12267 13.0058 0.244461C9.75174 1.10813 7.55327 3.13866 6.66587 6.38367C5.73761 9.77785 6.68191 12.72 9.23733 15.1378C9.48831 15.3753 9.77049 15.5797 10.036 15.7978C10.021 15.8217 10.0178 15.8339 10.0105 15.8374C9.95819 15.8625 9.90642 15.8894 9.85207 15.9091C7.82271 16.6487 6.03758 17.7786 4.50168 19.2937C2.22522 21.5394 0.787302 24.2342 0.234444 27.3896C0.134038 27.9628 0.0769869 28.5438 -0.00013051 29.1212C-0.00013051 29.4142 -0.00013051 29.7071 -0.00013051 30.0001C0.781296 30 1.5625 30 2.34378 30ZM8.67283 8.66152C8.68242 5.18392 11.5205 2.34874 14.9958 2.34471C18.4787 2.34076 21.3368 5.20164 21.3273 8.68232C21.3177 12.1599 18.4797 14.9951 15.0043 14.999C11.5212 15.003 8.66324 12.1423 8.67283 8.66152Z" fill="white"/>
</g>
<defs>
<clipPath id="clip0_49_44">
<rect width="30" height="30" fill="white" transform="matrix(-1 0 0 1 30 0)"/>
</clipPath>
</defs>
</svg>
