<svg xmlns="http://www.w3.org/2000/svg" viewBox="0 0 1440 320">
<path fill="#F3D5B9" fill-opacity="1" d="M0,32L80,26.7C160,21,320,11,480,32C640,53,800,107,960,154.7C1120,203,1280,245,1360,266.7L1440,288L1440,320L1360,320C1280,320,1120,320,960,320C800,320,640,320,480,320C320,320,160,320,80,320L0,320Z"></path>
<path fill="#5E4E3F"  d="M0,96L48,112C96,128,192,160,288,170.7C384,181,480,171,576,149.3C672,128,768,96,864,74.7C960,53,1056,43,1152,53.3C1248,64,1344,96,1392,112L1440,128L1440,320L1392,320C1344,320,1248,320,1152,320C1056,320,960,320,864,320C768,320,672,320,576,320C480,320,384,320,288,320C192,320,96,320,48,320L0,320Z"></path>
</svg>
